<svg width="24" height="24" viewBox="0 0 24 24" fill="none" xmlns="http://www.w3.org/2000/svg">
<path d="M10.0932 4.86515C6.85828 5.11167 4.3194 7.71744 4.3194 10.898V15.7686L3.05287 18.342C2.97243 18.5058 2.98441 18.6994 3.08453 18.8532C3.18466 19.0063 3.36009 19.0997 3.54751 19.0997H7.40282C7.50209 20.7153 8.89955 21.9999 10.5974 21.9999C12.2952 21.9999 13.6919 20.7152 13.792 19.0997H17.6488C17.8362 19.0997 18.0108 19.0063 18.1118 18.8532C18.2119 18.6994 18.2239 18.5066 18.1435 18.3428L16.8769 15.7694C16.8769 15.7694 16.8769 14.8359 16.8769 11.1679C16.8769 7.49983 14.5 4.5 10.0932 4.86515C10 4.99983 10.0249 4.93103 9.54147 4.93099C10.1806 5.01546 9 5.99983 10.1806 5.92164C15.3784 5.5252 15.7816 9.99974 15.7816 11.1679C15.7816 12.336 15.7816 15.8887 15.7816 15.8887C15.7816 15.9672 15.8004 16.045 15.8355 16.1161L16.7828 18.0411H4.41614L5.36347 16.1161C5.39856 16.045 5.41568 15.9672 5.41653 15.8887V10.899C5.41653 8.26018 7.50118 6.12599 10.1806 5.92164C10.8384 5.94007 10.7077 5.64369 10.6838 5.35168C10.6726 5.21188 10.6042 5.08202 10.4929 4.99102C10.3825 4.90003 10.2387 4.8544 10.0932 4.86515ZM8.50157 19.0983H12.6949C12.5999 20.1406 11.7099 20.9396 10.5983 20.9396C9.48665 20.9396 8.59656 20.1397 8.50157 19.0983Z" fill="black"/>
</svg>
