<svg width="167" height="26" viewBox="0 0 167 26" fill="none" xmlns="http://www.w3.org/2000/svg">
<path d="M137.077 18.1035H136.016V24.1329H137.077V18.1035ZM107.501 18.9503H108.471C109.068 18.9503 109.448 19.2946 109.448 19.8557C109.448 20.2663 109.245 20.5418 108.935 20.6438C108.776 20.6617 108.599 20.6693 108.422 20.6693H107.504V18.9528L107.501 18.9503ZM107.501 21.4217H108.755C109.286 21.4217 109.673 21.7558 109.673 22.3501C109.673 22.9444 109.245 23.2887 108.637 23.2887H107.501V21.4217ZM108.401 18.1061H106.481V24.1355H108.594C109.881 24.1355 110.758 23.4902 110.758 22.4011C110.758 21.7303 110.319 21.1616 109.755 20.9703C110.201 20.7688 110.522 20.325 110.522 19.7818C110.522 18.7003 109.637 18.1061 108.401 18.1061ZM110.445 12.4158L113.03 6.2946H111.858C111.412 7.46784 110.704 9.28381 110.419 10.0872C110.073 9.14098 109.409 7.63362 108.853 6.35325H108.819L108.163 7.89376L107.794 8.7737C107.583 9.2685 107.381 9.76076 107.255 10.0898C107.122 9.67914 106.927 9.13588 106.709 8.57476L105.817 6.29713H104.655L107.232 12.4184H107.265L108.519 9.44448L108.84 8.63342C108.932 8.89357 109.058 9.17668 109.168 9.44448L110.414 12.4184H110.448L110.445 12.4158ZM116.163 18.9681C117.369 18.9681 118.235 19.9067 118.235 21.1208C118.235 22.3348 117.369 23.2734 116.163 23.2734C114.958 23.2734 114.084 22.3425 114.084 21.1208C114.084 19.8991 114.958 18.9681 116.163 18.9681ZM116.163 17.9964C114.371 17.9964 113.022 19.3864 113.022 21.1208C113.022 22.8551 114.368 24.2452 116.163 24.2452C117.958 24.2452 119.305 22.8806 119.305 21.1208C119.305 19.3609 117.94 17.9964 116.163 17.9964ZM117.82 10.3372H116.035C116.363 9.60007 116.676 8.82981 116.935 8.20238C117.186 8.88847 117.474 9.56691 117.82 10.3372ZM118.705 12.3215H119.815L116.943 6.20023H116.91L114.038 12.3215H115.148L115.686 11.1227H118.161L118.699 12.3215H118.705ZM123.736 7.17962H125.505V6.29204H120.907V7.17962H122.674V12.3215H123.736V7.17962ZM126.754 21.9803V18.1035H125.692V21.8885C125.692 22.7608 125.187 23.2709 124.313 23.2709C123.438 23.2709 122.933 22.7608 122.933 21.8885V18.1035H121.882V21.9803C121.882 23.3703 122.792 24.2426 124.315 24.2426C125.838 24.2426 126.756 23.3703 126.756 21.9803M130.49 12.4286C131.39 12.4286 132.082 12.1531 132.333 12.0103V11.0309C131.954 11.2222 131.341 11.4568 130.531 11.4568C129.251 11.4568 128.377 10.5183 128.377 9.30421C128.377 8.09016 129.251 7.15157 130.556 7.15157C131.313 7.15157 131.913 7.39387 132.29 7.58771V6.60831C132.036 6.46548 131.39 6.18237 130.513 6.18237C128.661 6.18237 127.305 7.5316 127.305 9.30676C127.305 11.0819 128.661 12.4312 130.487 12.4312M131.892 18.9911H133.662V18.1035H129.064V18.9911H130.831V24.1329H131.892V18.9911ZM138.806 12.3215H139.867V6.29204H138.806V8.82982H136.062V6.29204H135V12.3215H136.062V9.70973H138.806V12.3215ZM142.903 23.2709C141.708 23.2709 140.831 22.3399 140.831 21.1182C140.831 19.8965 141.708 18.9656 142.903 18.9656C144.098 18.9656 144.975 19.9042 144.975 21.1182C144.975 22.3323 144.108 23.2709 142.903 23.2709ZM146.001 25.9999C146.396 25.9999 146.816 25.9591 147.019 25.9005V24.9695C146.783 25.0282 146.396 25.0613 146.093 25.0613C145.267 25.0613 144.342 24.717 143.693 24.1406C145.073 23.8141 146.05 22.6154 146.05 21.1182C146.05 19.3584 144.685 17.9938 142.901 17.9938C141.116 17.9938 139.76 19.3839 139.76 21.1182C139.76 22.7608 140.921 24.0488 142.521 24.2171C143.329 25.3138 144.711 25.9999 145.998 25.9999M153.494 21.9803V18.1035H152.432V21.8885C152.432 22.7608 151.927 23.2709 151.052 23.2709C150.178 23.2709 149.673 22.7608 149.673 21.8885V18.1035H148.622V21.9803C148.622 23.3703 149.532 24.2426 151.055 24.2426C152.578 24.2426 153.496 23.3703 153.496 21.9803M156.466 24.1329H160.407V23.2454H157.527V21.511H159.861V20.6489H157.527V18.9911H160.281V18.1035H156.468V24.1329H156.466ZM164.825 18.9248C165.371 18.9248 165.953 19.0931 166.299 19.2844V18.2973C165.938 18.1469 165.356 17.9964 164.751 17.9964C163.522 17.9964 162.638 18.634 162.638 19.6874C162.638 20.6668 163.227 21.1361 164.338 21.5289C165.263 21.8553 165.61 22.1155 165.61 22.5924C165.61 22.9189 165.348 23.1357 164.92 23.2377C164.743 23.2887 164.533 23.304 164.315 23.304C163.71 23.2862 163.127 23.0872 162.699 22.8679V23.8983C163.12 24.0743 163.776 24.2426 164.476 24.2426C165.833 24.2426 166.64 23.605 166.64 22.5516C166.64 21.5977 166.035 21.1284 164.922 20.7178C163.997 20.3837 163.676 20.098 163.676 19.6721C163.676 19.2104 164.14 18.9273 164.83 18.9273" fill="black"/>
<path d="M3.40077 13.4769C3.85464 11.8982 4.52648 10.7147 5.41627 9.92663C6.62916 8.8452 8.08565 8.29939 9.77548 8.29939C10.8037 8.29939 11.7781 8.51363 12.7115 8.94466C13.6423 9.3757 14.3911 9.94702 14.9578 10.6535C15.5219 11.3524 15.9553 12.2961 16.2527 13.4769H3.40333H3.40077ZM3.17768 15.3847H18.6939C18.6708 13.0408 18.0375 11.0871 16.7861 9.51853C15.0322 7.29958 12.6808 6.18501 9.73958 6.18501C6.7984 6.18501 4.60596 7.27407 2.90587 9.43947C1.56221 11.1407 0.890381 13.0867 0.890381 15.2623C0.890381 17.5782 1.68017 19.6518 3.26744 21.4881C4.8547 23.3245 7.05226 24.2402 9.86779 24.2402C11.1345 24.2402 12.2731 24.0463 13.2808 23.6637C14.2834 23.2812 15.186 22.72 15.9938 21.9829C16.7964 21.2458 17.5041 20.2817 18.117 19.0805L16.2476 18.101C15.5707 19.2258 14.9373 20.0445 14.3578 20.547C13.7783 21.052 13.068 21.4575 12.2397 21.7636C11.4115 22.0697 10.555 22.2201 9.67804 22.2201C7.85743 22.2201 6.3317 21.58 5.09061 20.3021C3.85465 19.0243 3.21103 17.3869 3.17256 15.3847M26.5764 8.52129H30.0971V6.62625H26.5764V0.00764347H24.3352V6.62625H21.3094V8.52129H24.3352V24.2197H26.5764V8.52129ZM45.6082 24.2197H47.8288V14.9588C47.8288 12.6174 47.5903 10.8907 47.1134 9.79399C46.6416 8.69472 45.9005 7.81734 44.903 7.16441C43.9004 6.51147 42.7593 6.18501 41.4695 6.18501C40.1797 6.18501 39.0386 6.48086 37.9591 7.06238C36.8821 7.6439 35.8897 8.52639 34.9922 9.70728V0H32.7716V24.2197H34.9922V17.5017C34.9922 15.2317 35.0999 13.6708 35.3128 12.8317C35.6487 11.5284 36.3513 10.4342 37.4129 9.5466C38.4745 8.66412 39.6771 8.22288 41.0182 8.22288C42.1926 8.22288 43.1465 8.51364 43.8671 9.08496C44.5928 9.66137 45.0902 10.5132 45.3672 11.6482C45.5287 12.3114 45.6056 13.63 45.6056 15.6066V24.2223L45.6082 24.2197ZM66.2119 15.3082C66.2119 16.5478 65.9093 17.7057 65.3067 18.7769C64.7067 19.8533 63.8887 20.6796 62.863 21.2662C61.8347 21.8478 60.709 22.1385 59.4833 22.1385C58.2576 22.1385 57.1268 21.8478 56.1036 21.2662C55.0754 20.6796 54.2625 19.8558 53.6625 18.7769C53.0547 17.7057 52.7573 16.5478 52.7573 15.3082C52.7573 13.38 53.4189 11.7426 54.7395 10.3857C56.0601 9.02884 57.6422 8.3504 59.4833 8.3504C61.3244 8.3504 62.8912 9.03139 64.2169 10.3857C65.5426 11.74 66.2093 13.38 66.2093 15.3082M65.9503 21.5519C67.6248 19.7589 68.4633 17.6572 68.4633 15.2598C68.4633 12.8623 67.6735 10.804 66.0862 9.05944C64.3374 7.14145 62.1373 6.18246 59.4859 6.18246C56.8344 6.18246 54.6112 7.14655 52.8676 9.07474C51.2803 10.8193 50.4905 12.8827 50.4905 15.2572C50.4905 17.6317 51.3239 19.7538 53.0035 21.5494C54.6831 23.3424 56.8421 24.2376 59.4859 24.2376C62.1296 24.2376 64.2733 23.3424 65.9529 21.5494M79.9485 9.97253L81.3793 8.50088C79.7716 6.95526 78.1741 6.17991 76.5868 6.17991C75.2226 6.17991 74.0892 6.61859 73.1969 7.47812C72.3045 8.33764 71.8583 9.42163 71.8583 10.7275C71.8583 11.7298 72.1404 12.6174 72.6968 13.3928C73.261 14.1732 74.3149 14.9614 75.8714 15.7622C77.3227 16.4942 78.2484 17.1089 78.6664 17.5935C79.0792 18.0832 79.2844 18.6494 79.2844 19.2794C79.2844 20.0496 78.969 20.7179 78.3484 21.2841C77.7253 21.8554 76.9689 22.136 76.0791 22.136C74.8123 22.136 73.6097 21.5009 72.4763 20.2282L71.0788 21.807C71.6737 22.5619 72.4225 23.1587 73.3251 23.5898C74.2303 24.0208 75.1765 24.2376 76.174 24.2376C77.6638 24.2376 78.91 23.7453 79.8998 22.771C80.8947 21.7916 81.3947 20.5955 81.3947 19.1901C81.3947 18.1878 81.1024 17.29 80.5178 16.4917C79.928 15.701 78.8074 14.8823 77.1561 14.0304C75.8021 13.3367 74.9149 12.7271 74.4918 12.2144C74.0687 11.7069 73.8584 11.1738 73.8584 10.6204C73.8584 9.99038 74.1149 9.43437 74.6277 8.96252C75.1406 8.49067 75.7534 8.25093 76.474 8.25093C77.6048 8.25093 78.7638 8.82735 79.9511 9.97509" fill="black"/>
<path d="M16.3937 1.53027H3.20581V3.40235H16.3937V1.53027Z" fill="#9D0000"/>
<path d="M93.4979 6.18237H92.5569V24.2375H93.4979V6.18237Z" fill="#9D0000"/>
</svg>
