<?xml version="1.0" encoding="utf-8"?>
<!-- Generator: Adobe Illustrator 27.1.1, SVG Export Plug-In . SVG Version: 6.00 Build 0)  -->
<svg version="1.1" id="Layer_1" xmlns="http://www.w3.org/2000/svg" xmlns:xlink="http://www.w3.org/1999/xlink" x="0px" y="0px"
	 viewBox="0 0 130 98" style="enable-background:new 0 0 130 98;" xml:space="preserve">
<style type="text/css">
	.st0{fill:#D9D9D9;fill-opacity:4.000000e-02;}
	.st1{fill:none;stroke:#FFFFFF;stroke-width:2;stroke-miterlimit:8;}
	.st2{fill:#FFFFFF;}
</style>
<g id="play">
	<g id="Rectangle_57">
		<path class="st0" d="M48.1,1h32.3c26.5,0,48,21.5,48,48l0,0c0,26.5-21.5,48-48,48H48.1c-26.5,0-48-21.5-48-48l0,0
			C0.1,22.5,21.5,1,48.1,1z"/>
		<path class="st1" d="M48.1,2h32.3c26,0,47,21,47,47l0,0c0,26-21,47-47,47H48.1c-26,0-47-21-47-47l0,0C1.1,23,22.1,2,48.1,2z"/>
	</g>
	<path id="Polygon_1" class="st2" d="M79,49L56.8,62.3V35.7L79,49z"/>
	<g id="Rectangle_57_00000062904526211528733890000014852443482654096262_">
		<path class="st0" d="M48.5,2.2h31.5c25.9,0,46.8,21,46.8,46.8l0,0c0,25.9-21,46.8-46.8,46.8H48.5c-25.9,0-46.8-21-46.8-46.8l0,0
			C1.6,23.1,22.6,2.2,48.5,2.2z"/>
		<path class="st1" d="M48.5,3.2h31.5c25.3,0,45.8,20.5,45.8,45.8l0,0c0,25.3-20.5,45.8-45.8,45.8H48.5C23.1,94.8,2.6,74.3,2.6,49
			l0,0C2.6,23.7,23.1,3.2,48.5,3.2z"/>
	</g>
</g>
</svg>
