<svg width="20" height="14" viewBox="0 0 20 14" fill="none" xmlns="http://www.w3.org/2000/svg">
<path d="M3.57143 0C1.5969 0 0 1.56497 0 3.5V10.5C0 12.435 1.5969 14 3.57143 14H16.4286C18.4031 14 20 12.435 20 10.5V3.5C20 1.56497 18.4031 0 16.4286 0H3.57143ZM3.57143 0.466667H16.4286C18.1473 0.466667 19.5238 1.81561 19.5238 3.5V10.5C19.5238 12.1844 18.1473 13.5333 16.4286 13.5333H3.57143C1.85267 13.5333 0.47619 12.1844 0.47619 10.5V3.5C0.47619 1.81561 1.85267 0.466667 3.57143 0.466667ZM8.33333 3.96667V10.0333L13.5714 7L8.33333 3.96667Z" fill="black"/>
</svg>
