<svg width="10" height="16" viewBox="0 0 10 16" fill="none" xmlns="http://www.w3.org/2000/svg">
<g id="ico-phone">
<g id="Vector">
<path d="M2.0425 1C1.01875 1 0.1875 1.83125 0.1875 2.84625V13.145C0.1875 14.1688 1.01875 14.9913 2.0425 14.9913H7.9575C8.98125 14.9913 9.80375 14.16 9.8125 13.145V2.84625C9.8125 1.8225 8.98125 1 7.9575 1H2.0425ZM6.67125 1.63L6.4 2.68875H3.5825L3.31125 1.63H6.67125ZM2.03375 1.63H2.655L3.0225 3.0825C3.0575 3.2225 3.18 3.31875 3.32875 3.31875H6.63625C6.77625 3.31875 6.9075 3.2225 6.9425 3.0825L7.31 1.63H7.93125C8.605 1.63 9.1475 2.1725 9.1475 2.84625V11.7013H0.8175V2.855C0.8175 2.18125 1.36 1.63875 2.03375 1.63875V1.63ZM2.0425 14.37C1.36875 14.37 0.82625 13.8275 0.82625 13.1538V12.34H9.1825V13.1538C9.1825 13.8275 8.64 14.37 7.96625 14.37H2.0425Z" fill="white"/>
<path d="M4.7725 13.075C4.685 13.1625 4.65875 13.3025 4.7025 13.4163C4.755 13.53 4.86875 13.6088 4.99125 13.6088C5.11375 13.6088 5.23625 13.53 5.28 13.4163C5.3325 13.3025 5.30625 13.1625 5.21 13.075C5.0875 12.9613 4.88625 12.9613 4.76375 13.075H4.7725Z" fill="white"/>
<path d="M2.0425 1C1.01875 1 0.1875 1.83125 0.1875 2.84625V13.145C0.1875 14.1688 1.01875 14.9913 2.0425 14.9913H7.9575C8.98125 14.9913 9.80375 14.16 9.8125 13.145V2.84625C9.8125 1.8225 8.98125 1 7.9575 1H2.0425ZM6.67125 1.63L6.4 2.68875H3.5825L3.31125 1.63H6.67125ZM2.03375 1.63H2.655L3.0225 3.0825C3.0575 3.2225 3.18 3.31875 3.32875 3.31875H6.63625C6.77625 3.31875 6.9075 3.2225 6.9425 3.0825L7.31 1.63H7.93125C8.605 1.63 9.1475 2.1725 9.1475 2.84625V11.7013H0.8175V2.855C0.8175 2.18125 1.36 1.63875 2.03375 1.63875V1.63ZM2.0425 14.37C1.36875 14.37 0.82625 13.8275 0.82625 13.1538V12.34H9.1825V13.1538C9.1825 13.8275 8.64 14.37 7.96625 14.37H2.0425Z" stroke="white" stroke-width="0.0875"/>
<path d="M4.7725 13.075C4.685 13.1625 4.65875 13.3025 4.7025 13.4163C4.755 13.53 4.86875 13.6088 4.99125 13.6088C5.11375 13.6088 5.23625 13.53 5.28 13.4163C5.3325 13.3025 5.30625 13.1625 5.21 13.075C5.0875 12.9613 4.88625 12.9613 4.76375 13.075H4.7725Z" stroke="white" stroke-width="0.0875"/>
</g>
</g>
</svg>
