<svg width="10" height="13" viewBox="0 0 10 13" fill="none" xmlns="http://www.w3.org/2000/svg">
<path d="M8.09985 0.35907C7.10551 0.35907 6.29985 1.16473 6.29985 2.15907C6.29985 3.1534 7.10551 3.95907 8.09985 3.95907C9.09418 3.95907 9.89985 3.1534 9.89985 2.15907C9.89985 1.16473 9.09418 0.35907 8.09985 0.35907ZM6.0936 2.78727L3.17325 4.77942C3.32559 4.91184 3.45801 5.06359 3.567 5.2341L6.36075 3.3309C6.24825 3.16449 6.15511 2.98298 6.0936 2.78727ZM1.79985 4.55907C0.805512 4.55907 -0.000152588 5.36474 -0.000152588 6.35907C-0.000152588 7.3534 0.805512 8.15907 1.79985 8.15907C2.79418 8.15907 3.59985 7.3534 3.59985 6.35907C3.59985 5.36474 2.79418 4.55907 1.79985 4.55907ZM3.57165 7.48407C3.46266 7.65458 3.32965 7.80633 3.1779 7.93875L6.09825 9.92625C6.15977 9.73288 6.24942 9.55184 6.36075 9.38718L3.57165 7.48407ZM8.09985 8.75907C7.10551 8.75907 6.29985 9.56474 6.29985 10.5591C6.29985 11.5534 7.10551 12.3591 8.09985 12.3591C9.09418 12.3591 9.89985 11.5534 9.89985 10.5591C9.89985 9.56474 9.09418 8.75907 8.09985 8.75907Z" fill="#646364"/>
</svg>
